<svg width="120" height="40" viewBox="0 0 120 40" fill="none" xmlns="http://www.w3.org/2000/svg">
<path d="M71.3063 35.612V32.8019L71.2507 32.8272C70.6183 33.1333 69.9304 33.3078 69.2247 33.3407C68.4948 33.3963 67.7697 33.1831 67.186 32.7412C66.7698 32.42 66.4597 31.9812 66.2957 31.4816C66.1186 30.9358 66.0984 30.3513 66.2375 29.7946C66.3691 29.2255 66.6878 28.7171 67.1405 28.3554C67.5452 28.0165 68.0384 27.804 68.562 27.7433C69.4864 27.6398 70.4207 27.8141 71.2456 28.2441L71.3063 28.277V25.4517L71.1773 25.4163C70.3518 25.1529 69.4857 25.0398 68.6202 25.0824C67.8317 25.1022 67.0552 25.2794 66.3362 25.6035C65.6103 25.9374 64.9704 26.4306 64.467 27.0477C63.6991 28.0178 63.2729 29.2143 63.2546 30.4514C63.2363 31.6886 63.6269 32.8972 64.3659 33.8895C65.112 34.8456 66.1591 35.5209 67.3378 35.8017C68.5797 36.1052 69.8823 36.0597 71.0989 35.6702L71.3063 35.612ZM43.4964 35.612V32.8019L43.4408 32.8272C42.8085 33.1333 42.1205 33.3078 41.4148 33.3407C40.6848 33.397 39.9595 33.1837 39.3762 32.7412C38.96 32.4205 38.6505 31.9814 38.4884 31.4816C38.3093 30.9363 38.2883 30.3514 38.4277 29.7946C38.5592 29.2255 38.8754 28.7171 39.3307 28.3554C39.7353 28.0165 40.2286 27.804 40.7521 27.7433C41.6766 27.6398 42.6109 27.8141 43.4357 28.2441L43.4964 28.277V25.4517L43.3674 25.4163C42.5419 25.1529 41.6758 25.0398 40.8103 25.0824C40.0219 25.1025 39.2454 25.2796 38.5263 25.6035C37.8009 25.9367 37.1609 26.4306 36.6546 27.0477C35.8875 28.0181 35.4616 29.2142 35.4429 30.451C35.4241 31.6879 35.8136 32.8964 36.5509 33.8895C37.2963 34.8464 38.3454 35.5208 39.5254 35.8017C40.7673 36.1052 42.0674 36.0597 43.2865 35.6702L43.4964 35.612ZM53.4215 33.28L53.4114 35.7005L53.5884 35.7309C54.1449 35.8346 54.7039 35.9054 55.2679 35.9459C55.7611 35.9939 56.2569 36.0015 56.7526 35.9762C57.2256 35.9408 57.6935 35.8523 58.1463 35.7132C58.6774 35.5614 59.1706 35.3009 59.5905 34.9417C59.9695 34.6169 60.2594 34.2008 60.4328 33.7327C60.7343 32.9503 60.728 32.0826 60.4151 31.3046C60.2521 30.8998 59.9935 30.5405 59.6613 30.2574C59.3395 29.9697 58.9626 29.7503 58.5535 29.6125L56.7273 28.9346C56.5092 28.8415 56.3322 28.6726 56.229 28.4591C56.1892 28.3715 56.1703 28.2759 56.1738 28.1797C56.1773 28.0836 56.2031 27.9896 56.2493 27.9052C56.3431 27.7515 56.478 27.6271 56.6388 27.546C56.8434 27.4475 57.0632 27.3842 57.2888 27.3588C57.6758 27.3032 58.0678 27.3057 58.4523 27.3715C58.9076 27.4221 59.3578 27.5005 59.8004 27.6143L59.8965 27.6345V25.4011L59.722 25.3632C59.2694 25.2549 58.8108 25.173 58.3486 25.1179C57.7493 25.0395 57.1426 25.0369 56.5427 25.1103C55.7839 25.1786 55.063 25.472 54.4661 25.9449C54.0614 26.2636 53.7554 26.686 53.5783 27.1691C53.3153 27.9026 53.3127 28.707 53.5783 29.443C53.7149 29.8097 53.9324 30.136 54.2157 30.4067C54.461 30.6419 54.7393 30.8442 55.0428 31.0036C55.4399 31.216 55.8623 31.3805 56.2999 31.4968C56.444 31.5398 56.5882 31.5853 56.7298 31.6334L56.9448 31.7118L57.0055 31.7371C57.218 31.813 57.4153 31.9344 57.5772 32.0912C57.691 32.1974 57.7795 32.3289 57.8326 32.4731C57.8676 32.6065 57.8685 32.7465 57.8352 32.8803C57.7668 33.0962 57.6159 33.2762 57.4153 33.3811C57.1974 33.4924 56.9622 33.566 56.7197 33.5987C56.3626 33.6543 56.0006 33.6721 55.6397 33.6518C55.1671 33.6148 54.6968 33.5523 54.2309 33.4646C53.988 33.412 53.746 33.3555 53.505 33.2951L53.4215 33.28ZM47.1614 35.7966H49.8172V25.257H47.1614V35.7966ZM77.923 28.3706C78.2051 28.1408 78.5297 27.9688 78.8783 27.8645C79.2269 27.7602 79.5927 27.7256 79.9546 27.7628C80.3166 27.7999 80.6677 27.9079 80.9879 28.0808C81.3081 28.2537 81.5911 28.4879 81.8207 28.7702C82.0509 29.052 82.2233 29.3765 82.328 29.725C82.4327 30.0736 82.4676 30.4394 82.4307 30.8014C82.3938 31.1635 82.2859 31.5147 82.1131 31.835C81.9402 32.1552 81.7059 32.4383 81.4236 32.6679L81.3806 32.7033C80.8045 33.145 80.0782 33.3431 79.3576 33.2551C78.6371 33.1671 77.9798 32.7999 77.527 32.2325C77.0742 31.6651 76.8621 30.9428 76.9361 30.2206C77.0102 29.4985 77.3645 28.8343 77.923 28.3706ZM74.0658 30.5306C74.0787 31.3533 74.2744 32.1627 74.6388 32.9004C75.0032 33.6381 75.5271 34.2854 76.1726 34.7956C76.8181 35.3057 77.569 35.6659 78.3709 35.85C79.1728 36.034 80.0056 36.0374 80.8089 35.8599C81.8871 35.6559 82.8777 35.1289 83.6493 34.3489C84.421 33.5688 84.9373 32.5726 85.1296 31.4924C85.3219 30.4121 85.1813 29.2989 84.7263 28.3005C84.2713 27.302 83.5234 26.4655 82.582 25.9019C81.745 25.3845 80.7862 25.0976 79.8026 25.0701C78.819 25.0426 77.8456 25.2756 76.981 25.7455C76.1165 26.2154 75.3915 26.9055 74.8795 27.7458C74.3676 28.5861 74.0869 29.5468 74.0658 30.5306ZM88.0757 16.7863C88.0905 17.1248 88.2355 17.4445 88.4803 17.6788C88.7251 17.9131 89.0508 18.0439 89.3897 18.0439C89.7285 18.0439 90.0543 17.9131 90.2991 17.6788C90.5439 17.4445 90.6888 17.1248 90.7036 16.7863V13.8649C90.6888 13.5264 90.5439 13.2067 90.2991 12.9724C90.0543 12.7381 89.7285 12.6073 89.3897 12.6073C89.0508 12.6073 88.7251 12.7381 88.4803 12.9724C88.2355 13.2067 88.0905 13.5264 88.0757 13.8649V16.7863ZM80.8823 16.7863C80.9075 17.1182 81.0572 17.4283 81.3013 17.6546C81.5454 17.8808 81.866 18.0066 82.1988 18.0066C82.5317 18.0066 82.8522 17.8808 83.0963 17.6546C83.3405 17.4283 83.4901 17.1182 83.5153 16.7863V10.2379C83.4946 9.90315 83.3469 9.58893 83.1026 9.35925C82.8582 9.12957 82.5354 9.0017 82.2001 9.0017C81.8647 9.0017 81.542 9.12957 81.2976 9.35925C81.0532 9.58893 80.9056 9.90315 80.8848 10.2379L80.8823 16.7863ZM73.5827 19.4244C73.6079 19.7556 73.7572 20.0651 74.0009 20.2909C74.2445 20.5167 74.5645 20.6422 74.8967 20.6422C75.2289 20.6422 75.5488 20.5167 75.7925 20.2909C76.0361 20.0651 76.1855 19.7556 76.2107 19.4244V5.25764C76.1958 4.91913 76.0509 4.59941 75.8061 4.36512C75.5613 4.13083 75.2355 4.00006 74.8967 4.00006C74.5578 4.00006 74.2321 4.13083 73.9873 4.36512C73.7425 4.59941 73.5975 4.91913 73.5827 5.25764V19.4244ZM66.4045 16.7863C66.4253 17.121 66.5729 17.4352 66.8172 17.6649C67.0616 17.8946 67.3844 18.0224 67.7197 18.0224C68.0551 18.0224 68.3778 17.8946 68.6222 17.6649C68.8666 17.4352 69.0142 17.121 69.035 16.7863V10.2379C69.0201 9.89936 68.8752 9.57963 68.6304 9.34535C68.3856 9.11106 68.0598 8.98029 67.721 8.98029C67.3822 8.98029 67.0564 9.11106 66.8116 9.34535C66.5668 9.57963 66.4219 9.89936 66.407 10.2379V16.7863M59.072 16.7863C59.104 17.1125 59.2563 17.4152 59.4992 17.6354C59.742 17.8556 60.0581 17.9775 60.386 17.9775C60.7138 17.9775 61.0299 17.8556 61.2728 17.6354C61.5156 17.4152 61.6679 17.1125 61.6999 16.7863V13.8649C61.6851 13.5264 61.5402 13.2067 61.2954 12.9724C61.0506 12.7381 60.7248 12.6073 60.386 12.6073C60.0471 12.6073 59.7214 12.7381 59.4766 12.9724C59.2318 13.2067 59.0868 13.5264 59.072 13.8649V16.7863ZM51.8128 16.7863C51.8277 17.1248 51.9726 17.4445 52.2174 17.6788C52.4622 17.9131 52.788 18.0439 53.1268 18.0439C53.4657 18.0439 53.7914 17.9131 54.0362 17.6788C54.281 17.4445 54.426 17.1248 54.4408 16.7863V10.2379C54.426 9.89936 54.281 9.57963 54.0362 9.34535C53.7914 9.11106 53.4657 8.98029 53.1268 8.98029C52.788 8.98029 52.4622 9.11106 52.2174 9.34535C51.9726 9.57963 51.8277 9.89936 51.8128 10.2379V16.7863ZM44.5107 19.4244C44.5256 19.7629 44.6705 20.0826 44.9153 20.3169C45.1601 20.5512 45.4858 20.6819 45.8247 20.6819C46.1635 20.6819 46.4893 20.5512 46.7341 20.3169C46.9789 20.0826 47.1238 19.7629 47.1387 19.4244V5.25764C47.1238 4.91913 46.9789 4.59941 46.7341 4.36512C46.4893 4.13083 46.1635 4.00006 45.8247 4.00006C45.4858 4.00006 45.1601 4.13083 44.9153 4.36512C44.6705 4.59941 44.5256 4.91913 44.5107 5.25764V19.4244ZM37.2743 16.7863C37.3032 17.1152 37.4543 17.4213 37.6977 17.6444C37.9412 17.8674 38.2594 17.9911 38.5896 17.9911C38.9197 17.9911 39.2379 17.8674 39.4814 17.6444C39.7249 17.4213 39.8759 17.1152 39.9048 16.7863V10.2379C39.89 9.89936 39.745 9.57963 39.5002 9.34535C39.2554 9.11106 38.9297 8.98029 38.5908 8.98029C38.252 8.98029 37.9262 9.11106 37.6814 9.34535C37.4366 9.57963 37.2917 9.89936 37.2768 10.2379V16.7863M30 16.7863C30.0252 17.1175 30.1746 17.427 30.4182 17.6528C30.6618 17.8787 30.9818 18.0041 31.314 18.0041C31.6462 18.0041 31.9661 17.8787 32.2098 17.6528C32.4534 17.427 32.6028 17.1175 32.628 16.7863V13.8649C32.6131 13.5264 32.4682 13.2067 32.2234 12.9724C31.9786 12.7381 31.6528 12.6073 31.314 12.6073C30.9751 12.6073 30.6494 12.7381 30.4046 12.9724C30.1598 13.2067 30.0149 13.5264 30 13.8649V16.7863Z" fill="white"/>
</svg>
