<svg width="120" height="40" viewBox="0 0 120 40" fill="none" xmlns="http://www.w3.org/2000/svg">
<path d="M0 24.0262H5.72369V18.2368H0V24.0262Z" fill="white"/>
<path d="M16.1182 24.0262H21.8419V18.2368H16.1182V24.0262Z" fill="white"/>
<path d="M32.2363 24.0262H37.96V18.2368H32.2363V24.0262Z" fill="white"/>
<path d="M47.1055 24.0262H52.8292V18.2368H47.1055V24.0262Z" fill="white"/>
<path d="M63.1576 14.9473C63.1576 15.8026 63.0918 16.1315 62.8944 16.3289C62.7629 16.4605 62.4339 16.5263 62.0392 16.5263H61.8418V17.0526H65.7234C67.3023 17.0526 68.5523 16.6579 69.4734 15.7368C70.526 14.75 71.0523 13.2368 71.0523 11.5921C71.0523 10.0789 70.5918 8.8289 69.8023 7.77628C68.8155 6.65786 67.5655 6.13153 65.7234 6.13153H61.8418V6.65786H62.0392C62.4339 6.65786 62.7629 6.72366 62.8944 6.85521C63.0918 7.0526 63.1576 7.38154 63.1576 8.23682V14.9473ZM64.6708 8.10522C64.6708 7.38154 64.7365 7.1842 64.8681 6.9868C65.0655 6.78946 65.4602 6.65786 66.0523 6.65786C68.355 6.65786 69.276 8.10522 69.276 11.5921C69.276 15.1447 68.4208 16.4605 66.0523 16.4605C64.8681 16.4605 64.6708 16.2631 64.6708 15.0131V8.10522Z" fill="white"/>
<path d="M78.2235 13.2368C78.1577 10.8026 76.9735 9.28943 75.1314 9.28943C73.4209 9.28943 72.1709 10.9342 72.1709 13.2368C72.1709 15.7368 73.4209 17.3158 75.3288 17.3158C76.5788 17.3158 77.434 16.6579 78.0919 15.2105L77.6314 14.9473C77.0393 16.1973 76.4472 16.6579 75.5919 16.6579C74.2761 16.6579 73.7499 15.671 73.6841 13.2368H78.2235ZM73.7499 12.6447C73.7499 10.9342 74.3419 9.88151 75.263 9.88151C76.184 9.88151 76.7104 10.9342 76.7104 12.6447H73.7499Z" fill="white"/>
<path d="M84.5397 17.1841L86.7765 17.0526V16.5921H86.5791C85.9212 16.5921 85.7897 16.3289 85.7897 15.2105V9.42102L83.2896 9.48682V10.0131H83.5528C84.2107 10.0131 84.4081 10.2762 84.4081 11.3289V13.3684C84.4081 14.2894 84.2765 14.8815 83.9476 15.4737C83.6186 16.1315 83.0923 16.4605 82.5002 16.4605C82.1712 16.4605 81.8423 16.2631 81.7107 15.9341C81.5791 15.6052 81.5133 15.2763 81.5133 14.6184V9.42102L79.0791 9.48682V10.0131H79.2765C80.0002 10.0131 80.1318 10.2762 80.1318 11.3289V14.1578C80.1318 15.4079 80.1975 15.9341 80.5265 16.4605C80.8555 16.9868 81.3817 17.2499 82.1054 17.2499C83.2238 17.2499 83.9476 16.6579 84.5397 15.4079V17.1841Z" fill="white"/>
<path d="M89.8021 10.079H92.0389V9.48687H89.8021V6.6579H89.3416C89.1442 8.63159 88.6837 9.28948 87.2363 9.61842V10.079H88.4205V14.6184C88.4205 15.8026 88.5521 16.2632 88.8811 16.6579C89.21 17.0527 89.6705 17.25 90.3284 17.25C91.6442 17.25 92.3021 16.3947 92.3021 14.8158V14.4868H91.71V14.6842C91.71 15.8684 91.3811 16.5263 90.7232 16.5263C90.3284 16.5263 90.0652 16.3289 89.9337 15.9342C89.8679 15.6052 89.8021 15.2763 89.8021 14.6184V10.079Z" fill="white"/>
<path d="M97.6975 9.48682H97.1712C97.1712 9.74997 97.0396 9.88151 96.9738 9.88151C96.908 9.88151 96.7765 9.81577 96.7107 9.81577C96.2502 9.48683 95.6581 9.35522 95.1317 9.35522C93.8159 9.35522 92.9607 10.2105 92.9607 11.3947C92.9607 12.5131 93.5528 13.171 94.8686 13.6316C95.9212 13.9605 95.9212 13.9605 96.316 14.2236C96.7107 14.4868 96.9738 14.8815 96.9738 15.4079C96.9738 16.1315 96.4475 16.7236 95.6581 16.7236C95.0001 16.7236 94.3423 16.3947 93.9475 15.8026C93.6844 15.4737 93.5528 15.0789 93.2896 14.2894H92.8291V17.0526H93.2896L93.3554 16.921C93.4212 16.6579 93.5528 16.5921 93.6186 16.5921C93.6844 16.5921 93.7502 16.5921 93.8159 16.6579C94.6054 17.1184 95.0001 17.25 95.6581 17.25C97.1054 17.25 98.1581 16.2631 98.1581 14.8157C98.1581 14.092 97.8291 13.5 97.237 13.0394C96.908 12.7763 96.4475 12.5789 95.3949 12.2499C94.3423 11.921 94.0133 11.5921 94.0133 11C94.0133 10.342 94.5397 9.81577 95.2633 9.81577C96.316 9.81577 96.908 10.4736 97.1712 11.921H97.6975V9.48682Z" fill="white"/>
<path d="M104.408 14.9473C103.948 16.1315 103.355 16.6579 102.5 16.6579C101.25 16.6579 100.658 15.6052 100.658 13.2368C100.658 11 101.316 9.88151 102.566 9.88151C103.224 9.88151 103.75 10.2105 104.013 10.7368C103.948 10.7368 103.882 10.7368 103.816 10.7368C103.421 10.7368 103.092 11.0657 103.092 11.5263C103.092 12.0526 103.421 12.4473 103.882 12.4473C104.474 12.4473 104.869 11.9868 104.869 11.3947C104.869 10.2105 103.75 9.28943 102.434 9.28943C100.461 9.28943 99.0791 10.9342 99.0791 13.2368C99.0791 15.671 100.329 17.3158 102.237 17.3158C103.487 17.3158 104.342 16.6579 104.934 15.1447L104.408 14.9473Z" fill="white"/>
<path d="M110.723 17.0526H113.158V16.5921H112.96C112.237 16.5921 112.105 16.3289 112.105 15.2105V12.5789C112.105 11.1316 111.973 10.6053 111.579 10.0789C111.25 9.6184 110.723 9.35525 110 9.35525C109.079 9.35525 108.421 9.81579 107.895 10.8684V6L105.46 6.13154V6.59208H105.658C106.381 6.59208 106.513 6.85522 106.513 7.90789V15.2105C106.513 16.3289 106.381 16.5921 105.658 16.5921H105.395V17.0526H109.013V16.5921H108.75C108.026 16.5921 107.895 16.3289 107.895 15.2105V13.4342C107.895 12.3158 108.026 11.6579 108.289 11.0658C108.618 10.4079 109.145 10.0789 109.671 10.0789C110 10.0789 110.329 10.2105 110.46 10.5395C110.658 10.8684 110.723 11.1973 110.723 12.1842V17.0526Z" fill="white"/>
<path d="M120 13.2368C119.934 10.8026 118.75 9.28943 116.908 9.28943C115.197 9.28943 113.947 10.9342 113.947 13.2368C113.947 15.7368 115.197 17.3158 117.105 17.3158C118.355 17.3158 119.21 16.6579 119.868 15.2105L119.408 14.9473C118.816 16.1973 118.224 16.6579 117.368 16.6579C116.053 16.6579 115.526 15.671 115.46 13.2368H120ZM115.526 12.6447C115.526 10.9342 116.118 9.88151 117.039 9.88151C117.96 9.88151 118.487 10.9342 118.487 12.6447H115.526Z" fill="white"/>
<path d="M66.5794 23.1052H66.7767C68.4215 23.1052 69.1452 23.9605 69.4741 26.3947L69.9347 26.3289L69.8689 22.5789H61.7767L61.7109 26.3289L62.1715 26.3947C62.2373 25.4736 62.3689 25.0131 62.5662 24.4868C62.961 23.6315 63.7504 23.1052 64.6715 23.1052H65.0662V31.3947C65.0662 32.2499 65.0004 32.5789 64.803 32.7763C64.6057 32.9079 64.2768 32.9736 63.9478 32.9736H63.5531V33.5H68.0268V32.9736H67.6978C67.3031 32.9736 66.9741 32.9079 66.7767 32.7763C66.5794 32.5789 66.5794 32.2499 66.5794 31.3947V23.1052Z" fill="white"/>
<path d="M76.0526 29.6842C75.9869 27.25 74.8027 25.7368 73.0263 25.7368C71.25 25.7368 70 27.3815 70 29.6842C70 32.1841 71.25 33.7631 73.1579 33.7631C74.4079 33.7631 75.2632 33.1052 75.9869 31.6578L75.4605 31.3947C74.8685 32.6447 74.3421 33.1052 73.4211 33.1052C72.1053 33.1052 71.579 32.1184 71.579 29.6842H76.0526ZM71.579 29.0921C71.579 27.3815 72.1711 26.3289 73.0921 26.3289C74.0132 26.3289 74.5395 27.3815 74.5395 29.0921H71.579Z" fill="white"/>
<path d="M79.4082 22.4473L76.974 22.5789V23.0395H77.1714C77.8293 23.0395 78.0266 23.3026 78.0266 24.3552V31.6579C78.0266 32.7763 77.8293 33.0394 77.1714 33.0394H76.9082V33.5H80.4609V33.0394H80.1977C79.5398 33.0394 79.4082 32.7763 79.4082 31.6579V22.4473Z" fill="white"/>
<path d="M87.3023 29.6842C87.2365 27.25 86.0522 25.7368 84.2759 25.7368C82.5654 25.7368 81.3154 27.3815 81.3154 29.6842C81.3154 32.1841 82.4996 33.7631 84.4075 33.7631C85.6575 33.7631 86.5128 33.1052 87.2365 31.6578L86.7101 31.3947C86.1838 32.6447 85.5917 33.1052 84.6707 33.1052C83.4207 33.1052 82.8286 32.1184 82.8286 29.6842H87.3023ZM82.8286 29.0921C82.8286 27.3815 83.4207 26.3289 84.3417 26.3289C85.2628 26.3289 85.7891 27.3815 85.7891 29.0921H82.8286Z" fill="white"/>
<path d="M95.724 33.5V33.0394H95.5924C95.0661 33.0394 94.803 32.7763 94.2766 31.9868L92.3029 28.8289L94.0793 27.1842C94.803 26.5921 95.0003 26.4605 95.4608 26.4605H95.6582V25.9342H92.3687V26.4605H92.6319C93.1582 26.4605 93.3556 26.5921 93.3556 26.8553C93.3556 27.0526 93.1582 27.3157 92.8951 27.5789L90.6582 29.4868V22.4473L88.224 22.5789V23.0395H88.4214C89.1451 23.0395 89.2766 23.3026 89.2766 24.3552V31.6579C89.2766 32.7763 89.1451 33.0394 88.4214 33.0394H88.1582V33.5H91.7767V33.0394H91.5135C90.7898 33.0394 90.6582 32.7763 90.6582 31.6579V30.2763L91.3161 29.6842L93.6845 33.5H95.724Z" fill="white"/>
<path d="M99.6053 25.7368C97.5658 25.7368 96.25 27.3157 96.25 29.75C96.25 32.1184 97.5658 33.7631 99.5395 33.7631C101.579 33.7631 102.895 32.1184 102.895 29.75C102.895 27.3815 101.579 25.7368 99.6053 25.7368ZM99.5395 26.2631C100.132 26.2631 100.658 26.592 100.921 27.25C101.184 27.8421 101.316 28.6315 101.316 29.75C101.316 32.0526 100.724 33.2368 99.5395 33.2368C98.3552 33.2368 97.8289 32.0526 97.8289 29.6842C97.8289 28.6315 97.9605 27.8421 98.2237 27.25C98.4868 26.6578 99.0132 26.2631 99.5395 26.2631Z" fill="white"/>
<path d="M112.697 33.4999H115.065V33.0394H114.868C114.21 33.0394 114.078 32.7763 114.078 31.6578V28.6973C114.078 27.7104 113.947 27.1184 113.618 26.6578C113.289 26.1315 112.697 25.8026 111.973 25.8026C111.052 25.8026 110.394 26.2631 109.934 27.3157C109.539 26.2631 108.947 25.8026 108.026 25.8026C107.17 25.8026 106.381 26.3289 106.118 27.1842V25.8683L103.815 25.9341V26.4605H103.947C104.67 26.4605 104.802 26.7236 104.802 27.7762V31.6578C104.802 32.7763 104.67 33.0394 103.947 33.0394H103.684V33.4999H107.236V33.0394H107.039C106.315 33.0394 106.184 32.7763 106.184 31.6578V29.6183C106.184 28.3684 106.249 27.842 106.513 27.3157C106.776 26.7894 107.17 26.5262 107.631 26.5262C108.026 26.5262 108.355 26.7236 108.486 27.0526C108.684 27.4473 108.749 27.7762 108.749 29.1578V33.4999H111.184V33.0394H110.986C110.263 33.0394 110.131 32.7763 110.131 31.6578V29.6183C110.131 28.2368 110.197 27.842 110.46 27.3157C110.723 26.7894 111.184 26.5262 111.644 26.5262C111.973 26.5262 112.302 26.6578 112.434 26.9868C112.631 27.3157 112.697 27.842 112.697 28.8947V33.4999Z" fill="white"/>
<path d="M44.4074 7.51314H44.9995C49.0127 7.51314 50.8547 9.74997 51.6442 15.8026L52.8942 15.671L52.6969 6.19733H32.4337L32.2363 15.671L33.4205 15.8026C33.6179 13.5658 33.8811 12.3158 34.4074 11.0657C35.3284 8.8289 37.3021 7.51314 39.7364 7.51314H40.5916V28.3026C40.5916 30.4736 40.46 31.1973 39.9995 31.6579C39.6048 32.0526 38.7495 32.3157 37.8285 32.3157H36.8416V33.6315H48.1574V32.3157H47.1706C46.2495 32.3157 45.3943 32.0526 44.9995 31.6579C44.539 31.1973 44.4074 30.4736 44.4074 28.3026V7.51314Z" fill="white"/>
</svg>
