<svg width="120" height="40" viewBox="0 0 120 40" fill="none" xmlns="http://www.w3.org/2000/svg">
<path d="M71.8888 13.912V27.6271H75.7593V13.912H71.8888ZM41.4365 13.8887V27.6155H45.3418V16.9572L48.3871 16.9688C49.3867 16.9688 50.084 17.2129 50.5606 17.7243C51.1766 18.3752 51.4207 19.4329 51.4207 21.3507V27.6155H55.2098V20.0373C55.2098 14.621 51.7577 13.8887 48.3871 13.8887H41.4365ZM78.1304 13.912V27.6271H84.4068C87.7542 27.6271 88.8468 27.0692 90.0207 25.8256C90.8576 24.9538 91.3922 23.0244 91.3922 20.9207C91.3922 18.9912 90.9389 17.271 90.1369 16.2017C88.7189 14.2839 86.65 13.912 83.5583 13.912H78.1304ZM81.966 16.8875H83.628C86.0456 16.8875 87.6031 17.9684 87.6031 20.7812C87.6031 23.5939 86.0456 24.6865 83.628 24.6865H81.966V16.8875ZM66.3098 13.912L63.0786 24.7795L59.9868 13.912H55.8026L60.2193 27.6271H65.7983L70.2616 13.912H66.3098ZM93.2054 27.6271H97.0759V13.912H93.2054V27.6271ZM104.062 13.912L98.6566 27.6155H102.469L103.33 25.1863H109.722L110.536 27.6039H114.685L109.234 13.912H104.062ZM106.572 16.4109L108.92 22.8268H104.155L106.572 16.4109Z" fill="white"/>
<path d="M16.4597 16.19V14.3071C16.6456 14.2955 16.8316 14.2838 17.0176 14.2838C22.1782 14.1211 25.5605 18.7238 25.5605 18.7238C25.5605 18.7238 21.9109 23.7915 17.9939 23.7915C17.4709 23.7915 16.9594 23.7101 16.4713 23.5474V17.8289C18.4821 18.0729 18.8889 18.9563 20.086 20.9671L22.771 18.7122C22.771 18.7122 20.8067 16.1435 17.5057 16.1435C17.157 16.1319 16.8083 16.1551 16.4597 16.19ZM16.4597 9.96008V12.7729L17.0176 12.738C24.189 12.4939 28.873 18.6192 28.873 18.6192C28.873 18.6192 23.5032 25.1514 17.9125 25.1514C17.4244 25.1514 16.9478 25.1049 16.4713 25.0235V26.767C16.8665 26.8135 17.2733 26.8483 17.6685 26.8483C22.8756 26.8483 26.6414 24.1867 30.291 21.0484C30.8954 21.5366 33.3711 22.7105 33.8826 23.2219C30.4189 26.1277 22.3409 28.4639 17.7614 28.4639C17.3198 28.4639 16.9013 28.4407 16.4829 28.3942V30.8466H36.2653V9.96008H16.4597ZM16.4597 23.5474V25.0351C11.6477 24.175 10.3111 19.1655 10.3111 19.1655C10.3111 19.1655 12.6241 16.6084 16.4597 16.19V17.8172H16.448C14.4373 17.5732 12.8565 19.4561 12.8565 19.4561C12.8565 19.4561 13.7515 22.6292 16.4597 23.5474ZM7.91674 18.9563C7.91674 18.9563 10.7644 14.7488 16.4713 14.3071V12.7729C10.1484 13.2843 4.68555 18.6309 4.68555 18.6309C4.68555 18.6309 7.77727 27.5806 16.4597 28.3942V26.767C10.0902 25.9766 7.91674 18.9563 7.91674 18.9563Z" fill="white"/>
</svg>
