<svg width="20" height="20" viewBox="0 0 20 20" fill="none" xmlns="http://www.w3.org/2000/svg">
<path d="M5.71792 11.0417H4.11244C3.47989 11.0417 3.07797 10.3646 3.38086 9.80929L4.498 7.76121C4.93609 6.95805 5.77788 6.45834 6.69274 6.45834H9.35796M5.71792 11.0417L8.95866 14.2824M5.71792 11.0417L9.35796 6.45834M8.95866 14.2824V15.8879C8.95866 16.5204 9.63572 16.9224 10.191 16.6195L12.2391 15.5023C13.0423 15.0642 13.542 14.2224 13.542 13.3076V10.6424M8.95866 14.2824L13.542 10.6424M13.542 10.6424C15.8989 8.48188 17.4378 6.14123 17.6762 3.12465C17.7125 2.66584 17.3345 2.28784 16.8757 2.32411C13.8591 2.56257 11.5185 4.10144 9.35796 6.45834M4.00496 17.7084H3.12533C2.66509 17.7084 2.29199 17.3353 2.29199 16.875V15.9954C2.29199 15.0494 3.05891 14.2824 4.00496 14.2824C4.951 14.2824 5.71792 15.0494 5.71792 15.9954C5.71792 16.9414 4.951 17.7084 4.00496 17.7084Z" stroke="white" stroke-width="1.25" stroke-linejoin="round"/>
</svg>
