<svg width="120" height="41" viewBox="0 0 120 41" fill="none" xmlns="http://www.w3.org/2000/svg">
<path d="M46 0C49.5998 3.67777e-06 52.8207 1.7158 54.8418 4.37891L55.1953 4.01562C57.0114 2.29942 59.4391 1.25195 62.1035 1.25195C65.8928 1.25209 69.177 3.35741 70.9453 6.49414C72.515 5.79248 74.2151 5.42982 75.9346 5.43066C82.7555 5.43066 88.293 11.0104 88.293 17.8945C88.2928 24.7786 82.7554 30.3574 75.9346 30.3574C75.1009 30.3574 74.288 30.2735 73.4922 30.1152C71.9448 32.873 68.9875 34.747 65.6191 34.7471C64.2479 34.7498 62.8937 34.4389 61.6611 33.8379C60.0925 37.5218 56.44 40.1113 52.1875 40.1113C47.7453 40.1113 43.9769 37.3109 42.5244 33.374C41.8779 33.5106 41.2183 33.5795 40.5576 33.5791C35.2735 33.579 31.0001 29.2422 31 23.916C31 20.3371 32.9245 17.2212 35.7793 15.5371C35.1736 14.142 34.8616 12.637 34.8633 11.1162C34.8633 4.96883 39.8525 0 46 0ZM64.4189 13.9922C63.8184 13.9922 63.3449 14.1621 63.0127 14.4971C62.6827 14.8298 62.4583 15.3363 62.3457 16.0029L62.3047 16.2275H61.5508C61.5468 16.2274 61.4583 16.2262 61.4395 16.3242L61.3154 17.0146C61.3069 17.0808 61.3355 17.1224 61.4238 17.1221H62.1582L61.4131 21.2783C61.3548 21.613 61.2878 21.8882 61.2139 22.0967C61.141 22.3027 61.07 22.4574 60.9824 22.5693C60.8976 22.6778 60.8173 22.7571 60.6787 22.8037C60.5642 22.8422 60.4325 22.8603 60.2881 22.8604C60.2077 22.8604 60.1003 22.8469 60.0215 22.8311C59.9426 22.8155 59.9018 22.7972 59.8428 22.7725C59.8428 22.7725 59.7567 22.7402 59.7227 22.8262C59.6952 22.8965 59.5003 23.4327 59.4766 23.501C59.4528 23.5668 59.4857 23.6188 59.5273 23.6338C59.625 23.6686 59.698 23.6913 59.8311 23.7227C60.0157 23.7662 60.1716 23.7686 60.3174 23.7686C60.6231 23.7685 60.9019 23.7259 61.1328 23.6426C61.3651 23.5586 61.5673 23.4118 61.7461 23.2139C61.9396 23.0003 62.0613 22.7768 62.1777 22.4717C62.2929 22.1691 62.3911 21.7931 62.4697 21.3555L63.2178 17.1221H64.3115C64.3127 17.1221 64.4037 17.1246 64.4229 17.0254L64.5469 16.335C64.5554 16.2688 64.5272 16.2272 64.4385 16.2275H63.377C63.3827 16.2005 63.4305 15.8284 63.5518 15.4785C63.6037 15.3284 63.7023 15.2071 63.7852 15.124C63.8624 15.0452 63.9576 14.9857 64.0625 14.9512C64.1778 14.9155 64.2983 14.8987 64.4189 14.9004C64.5189 14.9004 64.6178 14.9121 64.6924 14.9277C64.7951 14.9495 64.8354 14.9609 64.8623 14.9688C64.9703 15.0017 64.9848 14.9702 65.0059 14.918L65.2598 14.2207C65.2857 14.1462 65.2229 14.114 65.1992 14.1045C65.0916 14.072 64.9819 14.0456 64.8711 14.0264C64.722 14.0014 64.5702 13.9907 64.4189 13.9922ZM41.3115 16.1104C40.236 16.1105 39.4845 16.7611 39.4844 17.6914V17.7119C39.4845 18.6927 40.3141 19.0132 41.0889 19.2344L41.2129 19.2725C41.777 19.4459 42.2652 19.5966 42.2656 19.9922V20.0127C42.2654 20.3768 41.9479 20.6484 41.4385 20.6484C41.2403 20.6484 40.6089 20.6443 39.9248 20.2119C39.8424 20.164 39.7949 20.1296 39.7314 20.0908C39.6977 20.0703 39.6137 20.0334 39.5771 20.1436L39.3457 20.7881L39.333 20.8467C39.3319 20.8928 39.3614 20.9074 39.3701 20.9199C39.4775 20.9976 39.587 21.0538 39.6963 21.1172C40.2815 21.4265 40.8335 21.5176 41.4102 21.5176C42.5849 21.5176 43.3154 20.892 43.3154 19.8857V19.8662C43.3154 18.9357 42.4902 18.5966 41.7197 18.3545L41.6191 18.3213C41.0361 18.1324 40.5333 17.968 40.5332 17.585V17.5654C40.5332 17.237 40.8275 16.9951 41.2822 16.9951C41.7875 16.9951 42.3892 17.1632 42.7744 17.376C42.7744 17.376 42.8892 17.4489 42.9307 17.3389C42.9541 17.277 43.1485 16.7556 43.1699 16.6953C43.1924 16.6336 43.1537 16.5864 43.1133 16.5625C42.6712 16.2931 42.0602 16.1104 41.4287 16.1104H41.3115ZM58.5098 16.1094C57.4339 16.1094 56.6826 16.7599 56.6826 17.6904V17.71C56.6826 18.6908 57.5115 19.0113 58.2861 19.2324L58.4111 19.2705C58.9773 19.444 59.4639 19.5953 59.4639 19.9912V20.0107C59.4638 20.375 59.1453 20.6465 58.6357 20.6465C58.4368 20.6465 57.8037 20.6431 57.1221 20.2109C57.0396 20.163 56.9914 20.1292 56.9287 20.0889C56.9076 20.0754 56.8085 20.0368 56.7744 20.1416L56.543 20.7861L56.5322 20.8457C56.5315 20.8912 56.5614 20.9055 56.5703 20.918C56.6775 20.9958 56.787 21.0521 56.8965 21.1152C57.4817 21.4248 58.0334 21.5156 58.6104 21.5156C59.7849 21.5155 60.5156 20.8901 60.5156 19.8838V19.8643C60.5156 18.9339 59.6924 18.5946 58.9199 18.3525L58.8184 18.3203C58.2353 18.1314 57.7324 17.9661 57.7324 17.583V17.5635C57.7324 17.2352 58.027 16.9933 58.4814 16.9932C58.9868 16.9932 59.5872 17.1612 59.9746 17.374C59.9783 17.3764 60.0888 17.4455 60.1299 17.3379C60.1521 17.2783 60.3491 16.7523 60.3682 16.6934C60.3907 16.6318 60.3513 16.5857 60.3115 16.5615C59.8694 16.2921 59.2586 16.1084 58.627 16.1084L58.5098 16.1094ZM67.0186 16.127C66.6186 16.127 66.2669 16.1984 65.9658 16.3379C65.6669 16.4776 65.4119 16.6702 65.2119 16.9102C65.0124 17.1501 64.8624 17.4365 64.7656 17.7627C64.6699 18.087 64.6211 18.4406 64.6211 18.8174C64.6211 19.194 64.67 19.548 64.7656 19.8721C64.8617 20.1982 65.012 20.4847 65.2119 20.7246C65.4121 20.9648 65.6669 21.157 65.9658 21.2939C66.2668 21.4302 66.6206 21.499 67.0186 21.499C67.4164 21.499 67.7704 21.4303 68.0693 21.2939C68.3682 21.1574 68.6233 20.9647 68.8232 20.7246C69.0229 20.4847 69.1718 20.1982 69.2686 19.8721C69.3642 19.548 69.4131 19.194 69.4131 18.8174C69.4131 18.4427 69.3643 18.087 69.2686 17.7627L69.1885 17.5254C69.0962 17.2961 68.9741 17.09 68.8242 16.9102C68.6241 16.6704 68.3721 16.4767 68.0713 16.3379C67.7724 16.1979 67.4185 16.127 67.0186 16.127ZM53.7559 16.124C53.3412 16.1241 52.9642 16.1935 52.6592 16.3359C52.354 16.4794 52.0976 16.6749 51.8955 16.9189C51.694 17.1631 51.5411 17.4517 51.4443 17.7822C51.3475 18.1085 51.2998 18.467 51.2998 18.8418C51.2998 19.2247 51.3498 19.5803 51.4502 19.9023C51.5508 20.2265 51.7128 20.5112 51.9297 20.7471C52.1485 20.9849 52.4289 21.1702 52.7656 21.3008C53.1003 21.4302 53.5046 21.4964 53.9717 21.4951C54.9314 21.4919 55.4373 21.2789 55.6436 21.1631C55.6803 21.1424 55.7155 21.1065 55.6719 21.0039L55.4551 20.3955C55.4217 20.3049 55.3291 20.3379 55.3291 20.3379C55.0913 20.4268 54.7538 20.5861 53.9648 20.584C53.4514 20.583 53.068 20.4308 52.8281 20.1924C52.5841 19.9482 52.4622 19.592 52.4434 19.0869L55.7695 19.0898C55.7701 19.0898 55.8569 19.0888 55.8662 19.0039C55.8696 18.9684 55.9798 18.3214 55.7666 17.5742L55.7646 17.5732C55.6813 17.2594 55.4737 16.9421 55.3389 16.7969C55.1242 16.5675 54.9163 16.4049 54.708 16.3164C54.4069 16.1886 54.0828 16.1234 53.7559 16.124ZM80.3457 16.124C79.9311 16.124 79.5543 16.1935 79.249 16.3359C78.9439 16.4795 78.6865 16.6747 78.4844 16.9189C78.2825 17.1631 78.131 17.4518 78.0342 17.7822C77.9374 18.1085 77.8887 18.467 77.8887 18.8418C77.8887 19.2247 77.9393 19.5803 78.0391 19.9023C78.1399 20.2265 78.3015 20.5112 78.5205 20.7471C78.7395 20.9848 79.0196 21.1702 79.3564 21.3008C79.6911 21.4303 80.0981 21.4964 80.5635 21.4951C81.5225 21.4919 82.0278 21.2789 82.2344 21.1631C82.2711 21.1424 82.3061 21.1065 82.2627 21.0039L82.0459 20.3955C82.0125 20.3051 81.9209 20.3379 81.9209 20.3379C81.6829 20.4268 81.3459 20.5861 80.5566 20.584C80.0409 20.5831 79.6601 20.4308 79.4199 20.1924C79.1758 19.9482 79.0532 19.5922 79.0342 19.0869L82.3613 19.0898C82.3667 19.0897 82.4492 19.0863 82.458 19.0039C82.4616 18.9684 82.5714 18.3214 82.3584 17.5742L82.3545 17.5732C82.2709 17.2595 82.0635 16.9422 81.9287 16.7969C81.714 16.5674 81.5054 16.4049 81.2969 16.3164C80.9961 16.1887 80.6725 16.1234 80.3457 16.124ZM76.0762 16.1133C75.6636 16.1133 75.2971 16.1845 74.9834 16.3242C74.6699 16.4637 74.4049 16.6567 74.1943 16.8965C73.9839 17.1364 73.8231 17.4228 73.7158 17.749C73.6095 18.0733 73.5566 18.4291 73.5566 18.8057C73.5566 19.6185 73.7755 20.2777 74.209 20.7598C74.6427 21.2437 75.2951 21.4883 76.1455 21.4883C76.6487 21.4883 77.1647 21.386 77.5352 21.2393C77.5379 21.2379 77.6052 21.2038 77.5752 21.123L77.332 20.458C77.2999 20.3632 77.208 20.3981 77.207 20.3984C77.0645 20.4529 76.9122 20.5031 76.75 20.5283C76.5866 20.554 76.4045 20.5674 76.2129 20.5674C75.7393 20.5673 75.3602 20.4261 75.0908 20.1465C74.8192 19.8664 74.6678 19.4151 74.6699 18.8047C74.6715 18.2491 74.806 17.8325 75.0469 17.5127C75.2847 17.1969 75.6516 17.0322 76.1357 17.0322C76.5397 17.0323 76.8489 17.0793 77.1729 17.1807C77.1729 17.1807 77.2503 17.2144 77.2871 17.1133C77.3732 16.8753 77.437 16.7045 77.5293 16.4434C77.5554 16.3689 77.491 16.3371 77.4678 16.3281C77.3406 16.2783 77.04 16.1975 76.8125 16.1631C76.6 16.1306 76.354 16.1133 76.0762 16.1133ZM46.1562 16.1162C45.9078 16.1162 45.5056 16.15 45.2656 16.1982C45.2629 16.1988 44.5406 16.3387 44.2422 16.5723C44.2388 16.5745 44.1782 16.6154 44.2129 16.7041L44.4482 17.3359C44.4775 17.4178 44.5576 17.3896 44.5576 17.3896L44.7334 17.3018C45.3478 17.0168 46.0586 17.0254 46.0586 17.0254C46.4161 17.0254 46.6937 17.0984 46.8789 17.2402C47.0603 17.3793 47.1533 17.5899 47.1533 18.0322V18.1729C46.8691 18.1316 46.6055 18.1074 46.6055 18.1074L46.6025 18.0996C46.4678 18.0896 46.2931 18.085 46.085 18.085C45.8008 18.085 45.5244 18.1198 45.2676 18.1895C45.0087 18.2593 44.7751 18.3678 44.5752 18.5117C44.3748 18.6549 44.2094 18.8425 44.0928 19.0596C43.9752 19.2782 43.9151 19.5351 43.915 19.8252C43.915 20.1199 43.9665 20.3748 44.0674 20.583C44.1663 20.7898 44.3154 20.9689 44.501 21.1035C44.6856 21.2379 44.9138 21.3375 45.1768 21.3965C45.4378 21.4559 45.7324 21.4853 46.0566 21.4854C46.3977 21.4854 46.737 21.4567 47.0654 21.4014C47.3453 21.3531 47.6241 21.2995 47.9014 21.2393C48.0094 21.2144 48.1292 21.1822 48.1348 21.1807C48.2168 21.1597 48.2109 21.0713 48.2109 21.0713L48.209 18.04C48.209 17.375 48.0312 16.8805 47.6807 16.5752C47.3313 16.2701 46.8194 16.1162 46.1562 16.1162ZM49.3867 14.0986C49.331 14.0986 49.291 14.1439 49.291 14.1992V21.2871C49.291 21.3427 49.331 21.3877 49.3867 21.3877H50.2666C50.3222 21.3877 50.3623 21.3427 50.3623 21.2871V14.1992C50.3623 14.1439 50.3221 14.0986 50.2666 14.0986H49.3867ZM72.7334 16.1738C72.317 16.1478 72.0854 16.218 71.877 16.3115C71.6712 16.4043 71.4429 16.5539 71.3164 16.7266V16.3223C71.3164 16.2667 71.2767 16.2217 71.2207 16.2217H70.3701C70.3151 16.2218 70.2754 16.2668 70.2754 16.3223V21.2695C70.2754 21.2961 70.2858 21.3218 70.3047 21.3408C70.3234 21.3596 70.3493 21.3701 70.376 21.3701H71.248C71.2746 21.37 71.3006 21.3595 71.3193 21.3408C71.3382 21.3218 71.3486 21.2961 71.3486 21.2695V18.7852C71.3487 18.4527 71.385 18.1223 71.458 17.9141C71.5298 17.7079 71.6285 17.5437 71.749 17.4258C71.8642 17.3119 72.0045 17.2268 72.1592 17.1787C72.3042 17.1371 72.4546 17.1162 72.6055 17.1162C72.7792 17.1162 72.9697 17.1611 72.9697 17.1611C73.0336 17.1684 73.0692 17.129 73.0908 17.0713C73.1479 16.9193 73.3102 16.4646 73.3418 16.374L73.3467 16.3525C73.3466 16.3405 73.3445 16.3283 73.3398 16.3174C73.3351 16.3064 73.3278 16.2963 73.3193 16.2881C73.3106 16.2796 73.3001 16.2728 73.2891 16.2686C73.2315 16.2468 72.9497 16.1873 72.7334 16.1738ZM46.25 18.9258C46.5517 18.9311 46.8531 18.9572 47.1514 19.0029V20.5117C47.1514 20.5117 46.7307 20.6032 46.2549 20.6318C45.5797 20.6724 45.2807 20.4375 45.2822 20.4375L45.2803 20.4365C45.15 20.3325 45.132 20.307 45.0889 20.2393C45.0231 20.1376 44.9893 19.9931 44.9893 19.8076C44.9893 19.5174 45.0862 19.307 45.2861 19.166C45.284 19.1664 45.5724 18.9175 46.25 18.9258ZM67.0205 17.0283C67.4585 17.0283 67.7702 17.1792 67.9766 17.4893C68.1852 17.8031 68.29 18.2491 68.29 18.8174L68.2852 19.0234C68.262 19.4942 68.158 19.8723 67.9766 20.1504C67.7693 20.4641 67.4564 20.6172 67.0205 20.6172C66.5849 20.6172 66.2736 20.4652 66.0693 20.1523C65.8636 19.8365 65.7598 19.3857 65.7598 18.8174C65.7598 18.249 65.8643 17.8031 66.0693 17.4893C66.2732 17.1778 66.5827 17.0283 67.0205 17.0283ZM53.6777 17.0029C54.1136 17.0029 54.4022 17.1745 54.6084 17.4854C54.7451 17.6905 54.8057 17.9633 54.8281 18.2686L52.459 18.2676V18.2686L52.4482 18.2676H52.459C52.5058 17.9522 52.5928 17.6893 52.7285 17.4854C52.9323 17.1739 53.2423 17.003 53.6777 17.0029ZM80.2676 17.0029C80.7035 17.0029 80.9921 17.1745 81.1982 17.4854C81.3351 17.6905 81.3946 17.9633 81.417 18.2686L79.0488 18.2676V18.2686L79.0381 18.2676H79.0488C79.0958 17.9521 79.1826 17.6893 79.3184 17.4854C79.522 17.1739 79.832 17.003 80.2676 17.0029Z" fill="white"/>
</svg>
