<svg width="120" height="40" viewBox="0 0 120 40" fill="none" xmlns="http://www.w3.org/2000/svg">
<path d="M88.3552 22.0093L89.2697 21.5331C89.4291 21.901 89.6968 22.2117 90.0371 22.4238C90.3774 22.636 90.7743 22.7395 91.1749 22.7206C92.0004 22.7206 92.5656 22.4539 92.5656 21.8379C92.5656 21.2219 92.1401 20.9742 91.0161 20.644C89.7015 20.2566 88.641 19.901 88.641 18.5991C88.641 17.437 89.5872 16.6939 90.9716 16.6939C91.491 16.6653 92.0075 16.7881 92.4584 17.0474C92.9094 17.3067 93.2753 17.6913 93.5118 18.1546L92.6736 18.7325C92.5064 18.4239 92.2572 18.1675 91.9535 17.9915C91.6498 17.8156 91.3034 17.727 90.9526 17.7354C90.1969 17.7354 89.765 18.0149 89.765 18.5102C89.765 19.1453 90.254 19.3548 91.3654 19.6914C92.6355 20.0661 93.6833 20.4916 93.6833 21.7744C93.6833 22.8857 92.7371 23.7621 91.1431 23.7621C90.5533 23.7989 89.9669 23.6495 89.4667 23.335C88.9664 23.0205 88.5776 22.5568 88.3552 22.0093ZM94.782 22.3269V19.6215H93.9373V18.7198H94.782V17.0178H95.8933V18.7198H97.1634V19.6215H95.8933V22.0411C95.8933 22.5682 96.0521 22.7778 96.6109 22.7778C96.776 22.7786 96.9405 22.7573 97.0999 22.7143V23.6097C96.8267 23.6512 96.5507 23.6724 96.2743 23.6732C95.0487 23.6732 94.782 23.2096 94.782 22.3269ZM97.7985 22.2253V18.7198H98.9416V21.9585C98.9416 22.5047 99.1702 22.7524 99.6655 22.7524C100.165 22.7175 100.632 22.4952 100.974 22.13V18.7198H102.117V23.6097H100.974V22.9746C100.744 23.2165 100.467 23.4084 100.16 23.5384C99.8532 23.6684 99.5227 23.7338 99.1892 23.7303C98.9931 23.7439 98.7964 23.7133 98.6136 23.6407C98.4308 23.5681 98.2667 23.4555 98.1332 23.3111C97.9998 23.1666 97.9004 22.9941 97.8425 22.8062C97.7845 22.6183 97.7695 22.4198 97.7985 22.2253ZM102.968 21.1774C102.968 19.4818 103.806 18.6372 105.057 18.6372C105.322 18.638 105.583 18.6951 105.824 18.8046C106.065 18.914 106.28 19.0735 106.454 19.2723V16.7955H107.585V22.4094C107.555 22.8131 107.605 23.2187 107.731 23.6033H106.562C106.489 23.3997 106.453 23.1847 106.454 22.9683C106.269 23.202 106.032 23.3899 105.762 23.5176C105.492 23.6454 105.197 23.7094 104.898 23.7049C103.787 23.6795 102.968 22.873 102.968 21.1774ZM106.461 22.13V20.174C106.33 19.9875 106.159 19.8334 105.96 19.7233C105.76 19.6132 105.539 19.5502 105.311 19.539C104.454 19.539 104.105 20.0915 104.105 21.1774C104.105 22.2634 104.549 22.7206 105.273 22.7206C105.501 22.71 105.725 22.652 105.929 22.5503C106.133 22.4486 106.315 22.3055 106.461 22.13ZM108.671 17.8751V16.8908H109.833V17.8751H108.671ZM108.671 23.5906V18.7007H109.814V23.5906H108.671ZM110.633 21.1711C110.616 20.8476 110.666 20.524 110.778 20.2202C110.89 19.9164 111.063 19.6385 111.286 19.4036C111.509 19.1688 111.778 18.9817 112.075 18.8539C112.373 18.7261 112.694 18.6602 113.018 18.6602C113.341 18.6602 113.662 18.7261 113.96 18.8539C114.257 18.9817 114.526 19.1688 114.749 19.4036C114.972 19.6385 115.145 19.9164 115.257 20.2202C115.37 20.524 115.419 20.8476 115.402 21.1711C115.419 21.4946 115.37 21.8181 115.257 22.122C115.145 22.4258 114.972 22.7036 114.749 22.9385C114.526 23.1734 114.257 23.3604 113.96 23.4883C113.662 23.6161 113.341 23.682 113.018 23.682C112.694 23.682 112.373 23.6161 112.075 23.4883C111.778 23.3604 111.509 23.1734 111.286 22.9385C111.063 22.7036 110.89 22.4258 110.778 22.122C110.666 21.8181 110.616 21.4946 110.633 21.1711ZM114.259 21.1711C114.259 20.2566 113.872 19.5961 112.989 19.5961C112.106 19.5961 111.719 20.1867 111.719 21.1711C111.719 22.1554 112.094 22.7651 112.989 22.7651C113.884 22.7651 114.259 22.1745 114.259 21.1711ZM115.777 22.9365L116.412 22.2443C116.841 22.6111 117.385 22.8157 117.949 22.8222C118.584 22.8222 118.927 22.6635 118.927 22.2634C118.927 21.8633 118.431 21.749 117.841 21.6283C117.003 21.4378 115.999 21.2155 115.999 20.0788C115.999 19.2215 116.736 18.6436 117.815 18.6436C118.548 18.6094 119.266 18.8571 119.822 19.3358L119.276 20.0724C118.882 19.7571 118.401 19.5708 117.898 19.539C117.263 19.539 117.072 19.7613 117.072 20.0343C117.072 20.4281 117.561 20.5487 118.139 20.6694C118.978 20.8535 120 21.0631 120 22.2062C120 23.235 119.073 23.7176 117.955 23.7176C117.155 23.7483 116.375 23.4684 115.777 22.9365ZM2.09568 23.597V17.8815H0V16.7828H5.34716V17.8497H3.25148V23.5652L2.09568 23.597ZM6.02667 23.597V16.7828H7.16977V19.3675C7.39932 19.1257 7.67625 18.9338 7.98328 18.8037C8.29032 18.6737 8.62086 18.6084 8.95428 18.6118C9.14894 18.5961 9.34464 18.6241 9.52716 18.6935C9.70969 18.763 9.87444 18.8722 10.0095 19.0133C10.1445 19.1544 10.2464 19.3238 10.3077 19.5092C10.369 19.6946 10.3883 19.8914 10.3641 20.0851V23.5906H9.221V20.3773C9.221 19.8311 8.99238 19.5834 8.49704 19.5834C7.9895 19.6169 7.51428 19.8443 7.16977 20.2185V23.597H6.02667ZM11.1325 21.1584C11.1023 20.835 11.1403 20.5088 11.2439 20.201C11.3475 19.8931 11.5145 19.6104 11.7341 19.371C11.9537 19.1317 12.221 18.941 12.5188 18.8114C12.8167 18.6817 13.1384 18.6159 13.4632 18.6182C14.5618 18.6182 15.6097 19.2532 15.6097 21.26V21.495H12.2629C12.2532 21.6676 12.2807 21.8403 12.3435 22.0014C12.4063 22.1625 12.503 22.3082 12.6271 22.4286C12.7512 22.5491 12.8997 22.6414 13.0625 22.6995C13.2254 22.7575 13.3989 22.7799 13.5711 22.7651C13.8275 22.7748 14.083 22.7287 14.3198 22.63C14.5566 22.5314 14.7692 22.3824 14.9428 22.1935L15.5398 22.7841C15.2834 23.0724 14.9667 23.3009 14.6123 23.4535C14.2579 23.606 13.8742 23.6788 13.4886 23.6668C12.2629 23.6986 11.1325 22.9556 11.1325 21.1584ZM14.5682 20.6821C14.5047 19.9391 14.1363 19.539 13.4568 19.539C13.3046 19.5356 13.1532 19.5627 13.0116 19.6186C12.8699 19.6745 12.7409 19.7582 12.6321 19.8647C12.5232 19.9712 12.4367 20.0983 12.3777 20.2387C12.3187 20.3791 12.2883 20.5298 12.2883 20.6821H14.5682ZM60.0381 15.2714C60.0381 15.2714 60.2096 15.0174 60.3493 14.8269C60.6689 14.4137 61.0284 14.033 61.4225 13.6901L61.6575 13.4933C61.6575 13.4933 61.4606 13.4933 61.3463 13.5377C61.0328 13.6359 60.743 13.7981 60.4953 14.014C60.1715 14.2871 59.8222 14.738 59.9809 15.1317L60.0381 15.2651M61.829 15.7795C62.331 15.7456 62.8191 15.6002 63.2578 15.354C63.6897 15.1127 64.3311 14.6364 64.2676 14.0839C64.2582 14.0007 64.2268 13.9215 64.1765 13.8545C64.1263 13.7875 64.0591 13.7351 63.9818 13.7028C63.8973 13.6632 63.8052 13.6426 63.7119 13.6426C63.6186 13.6426 63.5264 13.6632 63.442 13.7028C63.29 13.7433 63.1446 13.8053 63.0102 13.887C62.4082 14.2654 61.8719 14.7395 61.4225 15.2905L61.1748 15.627C61.1304 15.6842 61.0986 15.735 61.0986 15.7477C61.3387 15.798 61.5854 15.8087 61.829 15.7795ZM60.5588 16.732C60.4971 16.8233 60.4419 16.9188 60.3937 17.0178C60.3602 17.0735 60.3172 17.123 60.2667 17.1639C60.2424 17.189 60.2133 17.2091 60.1811 17.2227C60.149 17.2364 60.1143 17.2434 60.0794 17.2434C60.0444 17.2434 60.0098 17.2364 59.9776 17.2227C59.9454 17.2091 59.9163 17.189 59.892 17.1639C59.8038 17.0826 59.7326 16.9846 59.6824 16.8756C59.6323 16.7666 59.6042 16.6487 59.5999 16.5288C59.6079 16.4274 59.6079 16.3255 59.5999 16.224C59.5326 16.0652 59.4451 15.9158 59.3395 15.7795C59.2403 15.581 59.18 15.3655 59.1617 15.1444C59.1648 14.8537 59.2266 14.5666 59.3434 14.3003C59.4601 14.034 59.6295 13.7941 59.8412 13.5949C60.2672 13.1525 60.7795 12.8023 61.3463 12.5661C61.9439 12.2965 62.6143 12.234 63.2515 12.3883C63.483 12.4719 63.6903 12.6115 63.8548 12.7947C63.8771 12.8306 63.905 12.8628 63.9373 12.89C63.9866 12.9068 64.0378 12.9174 64.0897 12.9217C64.2996 12.9705 64.4967 13.0636 64.6677 13.1948C64.8714 13.3529 65.0131 13.5778 65.0677 13.8298C65.0979 14.1044 65.0637 14.3822 64.9678 14.6413C64.8719 14.9003 64.7169 15.1335 64.5152 15.3222C63.9633 15.916 63.2866 16.3802 62.5339 16.6812C62.1302 16.8414 61.6979 16.9171 61.2638 16.9035C61.1431 16.9035 61.0224 16.8591 60.9018 16.8527C60.8 16.8372 60.7 16.8117 60.6033 16.7765C60.6033 16.7765 60.5398 16.732 60.5271 16.7447M42.0025 18.3197C42.2678 18.3215 42.5309 18.2719 42.7773 18.1736C42.917 18.1165 43.0758 17.9768 42.9996 17.818C42.9234 17.6592 42.7837 17.6846 42.682 17.691C42.5143 17.7118 42.3572 17.7841 42.2321 17.8978C42.107 18.0115 42.0202 18.161 41.9835 18.326M43.3933 17.4941C43.5726 17.7282 43.6747 18.0123 43.6854 18.307C43.7031 18.6048 43.6155 18.8993 43.4378 19.1389C43.284 19.3296 43.091 19.4851 42.8718 19.5947C42.6527 19.7042 42.4125 19.7654 42.1677 19.774C41.9776 19.7919 41.7862 19.7919 41.5961 19.774H41.558C41.5175 19.896 41.4877 20.0214 41.4691 20.1486C41.4246 20.4852 41.3738 20.7265 41.3357 20.9933C41.2976 21.26 41.2786 21.4314 41.2595 21.6283C41.1619 22.7106 41.1746 23.8001 41.2976 24.8798C41.3067 24.9536 41.3067 25.0283 41.2976 25.1021C41.287 25.1734 41.2553 25.2398 41.2067 25.293C41.158 25.3462 41.0946 25.3836 41.0246 25.4005C40.5737 25.5212 40.1355 25.0703 39.9132 24.7147C39.3925 23.8764 39.5639 22.1745 39.7163 21.3171C39.7954 20.8405 39.9057 20.3695 40.0466 19.9073C40.106 19.7564 40.1548 19.6015 40.1926 19.4437C40.0415 19.3742 39.8867 19.3127 39.729 19.2596C39.5674 19.1868 39.4105 19.1041 39.2591 19.0119C39.0459 18.8877 38.8531 18.7313 38.6875 18.5483C38.5962 18.4317 38.5134 18.3086 38.4399 18.18C38.3765 18.0381 38.3437 17.8845 38.3437 17.7291C38.3437 17.5737 38.3765 17.4201 38.4399 17.2782C38.4399 17.1956 38.6367 16.84 38.7511 16.8527C38.8654 16.8654 38.8781 17.1321 38.9225 17.2718C38.9442 17.3341 38.9764 17.3921 39.0178 17.4433C39.3953 17.7363 39.8269 17.9521 40.2879 18.0784C40.4808 18.1456 40.6813 18.1883 40.8848 18.2054C40.946 18.1204 41.0011 18.0313 41.05 17.9386C41.0804 17.8881 41.1166 17.8412 41.1579 17.7989C41.4591 17.4387 41.8619 17.1776 42.3137 17.0496C42.5681 17.0108 42.8282 17.0461 43.0631 17.1512C43.2012 17.2192 43.3226 17.3167 43.4187 17.437M38.8844 21.1584H38.9352C39.1575 21.2536 39.1575 21.6474 39.1003 21.8315C38.9133 22.3545 38.564 22.804 38.1033 23.1143C37.7989 23.3086 37.464 23.4503 37.1126 23.5335C36.8884 23.5955 36.6504 23.586 36.4318 23.5063C36.2133 23.4266 36.025 23.2807 35.8933 23.0889C35.6605 22.7055 35.5335 22.2673 35.525 21.8188C35.5172 20.425 35.7938 19.0442 36.3378 17.7608C36.4014 17.6211 36.7189 16.9797 37.011 16.8781C37.3031 16.7765 37.4301 17.1194 37.4619 17.3734C37.4691 17.7516 37.4177 18.1287 37.3095 18.4911C37.1634 19.1262 36.9539 20.0724 36.903 20.3519C36.807 20.7682 36.7622 21.1947 36.7697 21.622C36.7697 21.7934 36.8268 21.876 36.9538 21.8633C37.0809 21.8506 37.8366 21.4759 38.2875 21.3108C38.4679 21.2331 38.6626 21.1942 38.859 21.1965M32.7434 20.6313H32.934C33.2451 20.6313 33.7595 20.5678 33.7595 20.5678C33.7595 20.5678 33.7024 20.1105 33.6579 19.8184C33.6332 19.662 33.5992 19.5072 33.5563 19.3548C33.5309 19.2387 33.4925 19.1258 33.442 19.0182V18.9865C33.442 18.9865 33.1943 19.4691 33.0546 19.8057C32.9149 20.1423 32.8895 20.2693 32.8069 20.4408C32.7841 20.4821 32.769 20.5273 32.7625 20.5741V20.644M31.1177 20.6694L31.3781 20.0851C31.6801 19.4529 32.0172 18.8381 32.3878 18.2435C32.6672 17.8561 33.2007 17.1258 33.207 17.1004C33.2163 16.9822 33.251 16.8674 33.3086 16.7638C33.3582 16.712 33.4193 16.6727 33.4869 16.6489C33.5545 16.6251 33.6268 16.6175 33.6979 16.6268C33.769 16.6361 33.8369 16.6619 33.8961 16.7023C33.9554 16.7426 34.0043 16.7963 34.0389 16.8591C34.201 17.2156 34.3389 17.5826 34.4517 17.9577C34.744 19.1166 34.9561 20.2942 35.0868 21.4823C35.0868 21.7109 35.1884 22.9238 35.1947 23.1906C35.2139 23.408 35.1768 23.6267 35.0868 23.8256C35.0658 23.8573 35.0376 23.8837 35.0045 23.9024C34.9714 23.9212 34.9343 23.9319 34.8963 23.9336C34.7479 23.8918 34.6124 23.8131 34.5025 23.7049C34.2682 23.509 34.1052 23.2411 34.0389 22.9429C33.9945 22.6889 33.931 21.9649 33.931 21.9649L32.8514 22.0093H32.2544L32.1528 22.2634C32.0512 22.511 31.9623 22.7651 31.9242 22.8984C31.848 23.1779 31.6956 23.743 31.6575 23.8256C31.5813 24.0098 31.5178 24.1177 31.3336 24.1431C31.1752 24.1852 31.0071 24.1718 30.8573 24.105C30.735 24.0272 30.6308 23.924 30.5519 23.8024C30.473 23.6808 30.4212 23.5436 30.4001 23.4001C30.3852 22.8319 30.5117 22.2689 30.7684 21.7617C30.8637 21.4886 30.7303 21.3933 30.508 21.0441C30.4801 21.0055 30.4587 20.9626 30.4445 20.9171C30.4451 20.8848 30.4522 20.8531 30.4653 20.8236C30.4784 20.7942 30.4972 20.7676 30.5207 20.7456C30.5288 20.7421 30.5374 20.7403 30.5461 20.7403C30.5549 20.7403 30.5635 20.7421 30.5715 20.7456H31.1177M24.9577 17.1194C24.9577 17.1194 24.9577 16.7701 24.9132 16.5796C24.8953 16.433 24.8454 16.2921 24.7671 16.1668C24.6846 16.0271 24.6147 15.9446 24.4814 15.9192C24.348 15.8938 24.221 16.0081 24.1194 16.1732C23.9701 16.4563 23.8509 16.7543 23.7638 17.0623C23.6565 17.3932 23.5799 17.7334 23.5351 18.0784C23.3941 18.9538 23.3621 19.8433 23.4399 20.7265C23.4399 20.8663 23.497 21.0631 23.497 21.0631L23.7828 20.7456C23.8336 20.6884 24.0813 20.3201 24.1003 20.282C24.1194 20.2439 24.2591 20.0153 24.2718 19.9708C24.2845 19.9264 24.475 19.5453 24.5068 19.4564C24.5385 19.3675 24.6528 19.0246 24.7227 18.8214C24.8296 18.4299 24.9061 18.0307 24.9513 17.6275C24.962 17.4583 24.962 17.2886 24.9513 17.1194M23.7765 22.1999L23.8908 22.4031C24.0206 22.6288 24.2048 22.8185 24.4266 22.955C24.6484 23.0914 24.9008 23.1702 25.1609 23.1842C25.7755 23.157 26.369 22.9518 26.8692 22.5936C28.0567 21.768 28.6791 20.282 29.022 18.8531C29.4476 17.1838 29.4279 15.432 28.9649 13.7727C28.6774 12.7371 28.1706 11.7755 27.4788 10.953C27.282 10.7435 26.9771 10.4577 26.8882 10.318C26.7993 10.1783 26.7739 10.0957 26.8882 10.0195C27.0025 9.9433 27.3518 10.1084 27.5233 10.2037C28.2247 10.6036 28.8245 11.16 29.276 11.8294C29.3903 12.0009 29.8603 12.7756 29.9492 12.9344C30.4476 13.8477 30.7666 14.8479 30.8891 15.8811C31.0792 17.3484 30.936 18.8396 30.4699 20.2439C30.2463 20.866 29.9523 21.4604 29.5936 22.0157C29.511 22.1427 29.022 22.8032 28.9585 22.8667C28.787 23.0445 28.3679 23.4065 28.1774 23.5652C27.7536 23.9624 27.2538 24.2695 26.7081 24.4682C26.1623 24.6668 25.582 24.7528 25.0021 24.721C24.3879 24.6567 23.8066 24.4113 23.3319 24.0161C23.0848 23.8035 22.8708 23.5552 22.6969 23.2795C22.635 23.1605 22.565 23.0459 22.4873 22.9365C22.4388 22.9541 22.3937 22.9799 22.3539 23.0127C22.223 23.0855 22.0872 23.1491 21.9475 23.2033C21.5531 23.3552 21.1285 23.412 20.7081 23.3689C20.2877 23.3259 19.8833 23.1843 19.5279 22.9556C18.9797 22.5625 18.5687 22.0072 18.3531 21.3679C18.0815 20.4887 18.0141 19.5591 18.1562 18.6499C18.3647 17.0765 18.92 15.569 19.782 14.2363C20.3311 13.3902 21.0306 12.6519 21.8459 12.058C21.9412 11.9882 22.4428 11.6961 22.5508 11.6453C22.6588 11.5944 22.989 11.4738 23.1287 11.6453C23.2684 11.8167 23.1986 11.7913 23.1287 11.8929C23.0012 12.0813 22.8543 12.2558 22.6905 12.4137C22.5826 12.528 21.9729 13.2837 21.8459 13.4552C21.7189 13.6266 21.0838 14.5729 21.0013 14.7253C20.1404 16.3101 19.6886 18.0847 19.6867 19.8883C19.6997 20.281 19.7465 20.672 19.8264 21.0568C19.9305 21.5612 20.1957 22.0181 20.5821 22.3586C20.7654 22.4887 20.9812 22.5653 21.2055 22.5799C21.4298 22.5945 21.6537 22.5464 21.8522 22.4412L22.1698 22.3015C22.1698 22.3015 22.0237 21.9331 21.9348 21.6664C21.6677 20.7476 21.5772 19.7866 21.6681 18.8341C21.7224 18.2057 21.9131 17.5967 22.2269 17.0496C22.488 16.586 22.8275 16.1713 23.2303 15.8239C23.6882 15.4485 24.2524 15.2263 24.8434 15.1889C25.0767 15.174 25.3098 15.2208 25.5193 15.3244C25.7289 15.4281 25.9075 15.585 26.0373 15.7795C26.4193 16.6223 26.5367 17.5612 26.3738 18.4721C26.1924 19.6456 25.6006 20.7167 24.7036 21.495C24.3925 21.7617 23.7828 22.2126 23.7828 22.2126M61.2511 17.8878H61.34C61.4626 17.947 61.5683 18.0363 61.6471 18.1473C61.726 18.2584 61.7754 18.3876 61.7909 18.5229C61.934 19.3904 62.0167 20.2667 62.0385 21.1457C62.0385 21.5648 62.0385 21.9776 62.083 22.4158C62.127 22.7955 62.127 23.1791 62.083 23.5589C62.0538 23.6899 61.9768 23.8054 61.8671 23.8828C61.6825 23.96 61.4789 23.9799 61.2828 23.9399C60.8827 23.8574 60.7557 23.6033 60.6986 23.2096C60.5905 22.0224 60.5905 20.8278 60.6986 19.6406C60.7403 19.1572 60.8274 18.6788 60.9589 18.2117C61.0034 18.0974 61.105 17.8624 61.2701 17.8942M48.9437 19.3104C48.9437 19.3104 48.3531 19.3548 47.9467 19.3993C47.2509 19.4752 46.564 19.6177 45.8954 19.8248C45.7303 19.8819 45.3874 20.028 45.3556 20.1994C45.3521 20.2871 45.3686 20.3744 45.4038 20.4547C45.439 20.535 45.492 20.6062 45.5588 20.663C45.6287 20.7456 46.0351 21.1393 46.1494 21.2346C46.81 21.7583 47.5332 22.1977 48.3023 22.5428C48.5436 22.6444 48.9373 22.7905 48.9373 22.7905V20.5043V19.3167M59.7333 19.774C59.7519 20.0962 59.7392 20.4195 59.6952 20.7392C59.6493 20.9551 59.5878 21.1674 59.511 21.3743C59.4115 21.5913 59.3013 21.8033 59.1808 22.0093C58.9247 22.4286 58.6128 22.811 58.2536 23.1461C57.1106 24.0174 55.7469 24.5519 54.3163 24.6893C53.3395 24.8058 52.3509 24.778 51.3823 24.6067C51.0457 24.5432 50.5504 24.4289 50.5504 24.4289V24.7655C50.5331 24.8634 50.5054 24.9592 50.4678 25.0513C50.4345 25.1199 50.3844 25.1791 50.3223 25.2235C50.2602 25.2679 50.188 25.296 50.1122 25.3053C49.9054 25.3697 49.6839 25.3697 49.4771 25.3053C49.3394 25.2333 49.2233 25.1259 49.1407 24.9942C49.0581 24.8626 49.012 24.7113 49.0072 24.5559C48.9627 24.2892 48.9183 23.8256 48.9183 23.8256L48.4928 23.6224C47.916 23.3346 47.3657 22.9967 46.848 22.6127C46.7146 22.511 46.1304 22.0221 45.997 21.9014C45.6387 21.5729 45.3325 21.1917 45.0889 20.771C44.99 20.6241 44.9289 20.4551 44.9112 20.2789C44.8935 20.1027 44.9196 19.9249 44.9873 19.7613C45.3225 19.2423 45.8241 18.8526 46.4098 18.6563C47.0475 18.4006 47.7062 18.2008 48.3785 18.0593C48.5771 18.0334 48.7742 17.9974 48.9691 17.9513V17.2528C48.9691 17.0686 49.1025 15.8938 49.1469 15.6397C49.1853 15.3657 49.2623 15.0984 49.3755 14.8459C49.4143 14.8098 49.4654 14.7897 49.5184 14.7897C49.5714 14.7897 49.6225 14.8098 49.6613 14.8459C50.2011 15.1825 50.3662 16.3447 50.4043 16.9353C50.4043 17.2972 50.4424 17.837 50.4424 17.837H51.4395C51.8292 17.8544 52.2174 17.8968 52.6016 17.964C53.2898 18.0663 53.9621 18.2562 54.602 18.5292C55.0539 18.7349 55.4152 19.0985 55.6181 19.5517C55.6832 19.7087 55.7091 19.8792 55.6937 20.0485C55.6782 20.2178 55.6217 20.3807 55.5292 20.5233C55.4219 20.7129 55.2708 20.8742 55.0886 20.9935C54.9063 21.1128 54.6981 21.1868 54.4814 21.2092C54.2266 21.2093 53.975 21.1529 53.7447 21.0441C53.7214 21.0203 53.7084 20.9884 53.7084 20.9552C53.7084 20.9219 53.7214 20.89 53.7447 20.8663C53.8616 20.792 53.9824 20.7241 54.1067 20.663C54.1688 20.6303 54.2264 20.5898 54.2782 20.5424C54.3861 20.4471 54.4814 20.3455 54.475 20.2185C54.4687 20.0915 54.2909 19.9645 54.1321 19.901C53.1689 19.5847 52.171 19.3863 51.16 19.3104H50.4742L50.5567 23.3049L51.1537 23.4128C51.3061 23.4128 51.9411 23.4954 52.1126 23.4954C53.45 23.5844 54.7901 23.3672 56.0309 22.8603C56.5456 22.6356 57.0082 22.307 57.3899 21.895C57.629 21.6088 57.8084 21.2776 57.9174 20.9209C58.0265 20.5643 58.0631 20.1894 58.025 19.8184C57.8606 18.906 57.4648 18.051 56.8755 17.3353C55.4241 15.6689 53.5889 14.3808 51.5284 13.5822C49.6436 12.782 47.63 12.3281 45.5842 12.2422C44.8181 12.2103 44.0509 12.2679 43.2981 12.4137L43.0504 12.4835C42.9854 12.4991 42.9232 12.5248 42.8662 12.5597L42.9361 12.5978C42.9996 12.5978 43.2599 12.6423 43.3933 12.6677C43.4525 12.6758 43.5094 12.6957 43.5606 12.7262C43.6119 12.7568 43.6565 12.7973 43.6918 12.8455C43.717 12.877 43.7308 12.9162 43.7308 12.9566C43.7308 12.997 43.717 13.0362 43.6918 13.0678C43.5584 13.2329 43.0567 13.2011 42.8345 13.1694C42.6122 13.1376 42.3201 13.0614 42.2693 12.8646C42.236 12.6244 42.2975 12.3807 42.4407 12.185C42.5529 11.9685 42.7121 11.7797 42.9065 11.6325C43.101 11.4853 43.3259 11.3833 43.5648 11.3341C44.3227 11.1328 45.0996 11.0115 45.8827 10.9721C47.4087 10.9278 48.9311 11.1426 50.3853 11.6071C51.3429 11.9035 52.2788 12.2663 53.1859 12.6931C53.8947 13.0492 54.5837 13.4435 55.2498 13.8743C55.4149 13.9823 56.3738 14.6872 56.5199 14.8142C56.8311 15.0682 57.2375 15.4492 57.536 15.7287C58.1755 16.3552 58.7229 17.0694 59.1617 17.8497C59.2443 18.0149 59.3078 18.18 59.4157 18.3705C59.5026 18.5558 59.5769 18.7467 59.638 18.942C59.638 19.0563 59.7015 19.2215 59.7079 19.2278C59.7388 19.4063 59.7579 19.5866 59.765 19.7676L59.7333 19.774ZM66.3887 20.0661H66.4522C66.8875 20.1128 67.3146 20.2174 67.7223 20.3773C68.0251 20.4962 68.2737 20.7222 68.4208 21.0123C68.5537 21.2784 68.6266 21.5705 68.6343 21.8679C68.642 22.1652 68.5843 22.4607 68.4653 22.7333C68.2579 23.1262 67.9279 23.4407 67.5254 23.6287C67.1575 23.8023 66.762 23.9098 66.3569 23.9463C65.596 24.0209 64.8292 23.8847 64.1406 23.5525C63.6839 23.3468 63.2943 23.0167 63.0165 22.6C62.9259 22.443 62.8819 22.2634 62.8898 22.0823C62.8976 21.9011 62.957 21.726 63.061 21.5775C63.2756 21.365 63.5359 21.2043 63.822 21.1074C64.1081 21.0106 64.4125 20.9802 64.7121 21.0187C65.2575 21.0508 65.797 21.1489 66.3188 21.3108C66.5292 21.3796 66.7315 21.4712 66.9221 21.5839C66.9493 21.608 66.9696 21.639 66.9808 21.6736C66.9919 21.7082 66.9936 21.7452 66.9856 21.7807C66.8903 22.0665 66.2045 22.2126 66.0076 22.2443C65.4742 22.3269 65.1947 22.1237 64.5914 21.8823C64.4308 21.8147 64.2622 21.7678 64.0897 21.7426C63.8167 21.7426 63.4547 21.7934 63.4547 22.0919C63.4547 22.2443 63.6135 22.3904 63.7468 22.4539C64.0323 22.5828 64.3417 22.6498 64.6549 22.6508C65.6305 22.713 66.6017 22.4736 67.4365 21.9649C67.4941 21.9309 67.5431 21.8839 67.5795 21.8277C67.6158 21.7714 67.6386 21.7076 67.6461 21.641C67.6461 21.641 67.6461 21.4696 67.5699 21.4569C67.4936 21.4442 67.5254 21.406 67.5 21.3743C67.4021 21.2968 67.2928 21.2347 67.1761 21.1901C66.5334 20.9869 65.8678 20.8653 65.1947 20.8281C64.674 20.7837 63.8548 20.7138 63.6579 20.6884C63.4535 20.6657 63.2528 20.6166 63.061 20.5424C62.9665 20.4993 62.8821 20.437 62.8131 20.3593C62.7442 20.2817 62.6924 20.1904 62.6609 20.0915C62.6226 19.9077 62.6214 19.718 62.6574 19.5337C62.6934 19.3494 62.7658 19.1742 62.8704 19.0182C63.3848 18.2752 64.5978 17.9958 65.4996 17.8815C66.5702 17.7111 67.6669 17.8318 68.6748 18.2308C68.8082 18.3006 68.8781 18.3705 68.8463 18.5102C68.819 18.6332 68.7582 18.7462 68.6709 18.8369C68.5835 18.9277 68.4728 18.9926 68.351 19.0246C68.019 19.0979 67.681 19.1405 67.3412 19.1516C66.2418 19.1441 65.1443 19.244 64.0643 19.4501C63.9733 19.4686 63.8869 19.5054 63.8103 19.558C63.6579 19.7232 64.0961 19.774 64.1914 19.793H64.2549L66.4331 20.0534M69.6655 23.9272C69.2464 23.7748 69.1511 23.1016 69.1321 22.7587C69.1127 21.4986 69.3169 20.2451 69.7354 19.0563C69.8433 18.7579 69.9958 18.2752 70.326 18.3006C70.4348 18.3215 70.5378 18.3658 70.6277 18.4305C70.7176 18.4952 70.7924 18.5788 70.8467 18.6753C71.177 19.1389 71.6088 19.7676 71.8946 20.1994C72.1804 20.6313 72.5296 21.1838 72.8218 21.6283C72.853 21.6801 72.8915 21.7271 72.9361 21.768C72.9869 21.8125 73.0377 21.8125 73.0631 21.768C73.0885 21.7236 73.0631 21.1901 73.0631 21.0758C73.0631 20.9615 73.0313 20.7519 73.0123 20.5995C72.937 20.0903 72.8331 19.5857 72.7011 19.0881C72.5741 18.6118 72.4217 18.1101 72.3137 17.6465C72.2732 17.5016 72.2498 17.3524 72.2439 17.202C72.2367 17.1581 72.2422 17.1131 72.2596 17.0722C72.277 17.0313 72.3056 16.9962 72.3422 16.9709C72.3788 16.9456 72.4218 16.9313 72.4662 16.9294C72.5106 16.9276 72.5546 16.9385 72.5931 16.9607C73.0186 17.1131 73.5838 18.0339 73.7489 18.3578C73.8061 18.4657 74.0284 18.9928 74.0792 19.1707C74.254 19.6909 74.3648 20.2304 74.4094 20.7773C74.4714 21.4215 74.3934 22.0713 74.1808 22.6825C74.0833 22.9177 73.9434 23.133 73.768 23.3176C73.6359 23.4452 73.4699 23.5322 73.2898 23.5682C73.1096 23.6043 72.9229 23.5878 72.7519 23.5208C72.339 23.1244 71.9936 22.6632 71.7295 22.1554C71.3929 21.5712 70.8213 20.4344 70.7324 20.3074C70.7119 20.2744 70.6805 20.2496 70.6435 20.2375C70.6118 20.2375 70.5927 20.2947 70.5864 20.3455C70.5292 20.6757 70.4911 22.2507 70.4911 22.2507C70.4907 22.6589 70.4589 23.0666 70.3958 23.47C70.345 23.6795 70.3006 23.8447 70.1101 23.9336C70.0475 23.963 69.9792 23.9783 69.91 23.9783C69.8409 23.9783 69.7726 23.963 69.71 23.9336M75.4763 23.832C75.4155 23.7808 75.3582 23.7257 75.3048 23.6668C75.236 23.5687 75.1724 23.4669 75.1143 23.362L75.0508 23.2096C74.9088 22.8684 74.8691 22.4933 74.9365 22.13C75.0147 21.8348 75.121 21.5477 75.254 21.2727C75.257 21.2474 75.257 21.2218 75.254 21.1965C75.254 21.133 75.1524 20.6821 75.1461 20.5614C75.1397 20.4408 75.3112 20.1867 75.5969 20.155H75.6605C75.7748 20.155 75.8446 19.9073 75.9081 19.7295L76.1304 19.0944C75.9437 19.0508 75.7593 18.9978 75.5779 18.9357C75.4768 18.906 75.3826 18.8564 75.3008 18.7899C75.219 18.7234 75.1513 18.6413 75.1016 18.5483C74.9873 18.3133 75.0635 18.1863 75.3048 18.1101C75.3937 18.1101 76.0986 17.945 76.3146 17.9132L77.1147 17.8053C77.3433 17.8053 78.3848 17.6592 78.7278 17.6656C78.9561 17.6636 79.181 17.7211 79.3803 17.8325C79.5796 17.9438 79.7465 18.1052 79.8645 18.3006C80.0233 18.5292 80.1312 18.8023 79.8645 18.9357C79.2852 19.1155 78.6799 19.197 78.0737 19.177H77.2862L77.0449 19.9962H78.3912C78.4905 19.9873 78.5904 19.9873 78.6897 19.9962C78.9373 20.0534 79.0199 20.2375 79.0326 20.517C79.0453 20.7964 78.9881 20.9869 78.7278 21.025C78.5944 21.025 77.1147 21.025 76.9179 21.0758L76.6638 21.1076C76.6638 21.1076 76.5559 21.387 76.467 21.6664C76.3781 21.9458 76.2892 22.257 76.2892 22.257H76.4289C76.5261 22.2654 76.6238 22.2654 76.721 22.257C77.1719 22.1745 77.845 22.0729 78.3912 21.9903C78.6897 21.9458 78.8357 21.9204 78.9881 22.1173C79.1185 22.263 79.1948 22.4491 79.2041 22.6444C79.2041 22.8413 79.0643 22.9746 78.8802 23.1143C78.1975 23.6282 77.4034 23.9741 76.5622 24.1241C76.3183 24.1596 76.0694 24.1334 75.8383 24.0479C75.7474 24.0172 75.66 23.9768 75.5779 23.9272L75.4763 23.832ZM84.8179 19.7232C84.4014 20.1179 84.0288 20.5565 83.7066 21.0314C83.3954 21.4823 83.0715 21.9903 82.8175 22.3904C82.7301 22.5248 82.6516 22.6648 82.5825 22.8095C82.7103 22.8364 82.8422 22.8364 82.9699 22.8095C83.431 22.7101 83.8646 22.5107 84.24 22.2253C84.688 21.8651 85.005 21.3674 85.1418 20.8091C85.2386 20.4604 85.207 20.0886 85.0529 19.7613C85.0267 19.7353 84.9914 19.7207 84.9545 19.7207C84.9176 19.7207 84.8822 19.7353 84.856 19.7613M81.8268 24.4353C81.8268 24.4353 81.7062 24.7909 81.6173 25.0703C81.4649 25.553 81.1283 26.8421 81.0521 27.2422C80.9378 27.8392 80.6012 29.395 80.5821 29.4331C80.563 29.4754 80.5292 29.5093 80.4869 29.5284C80.3535 29.611 80.2964 29.5856 80.1312 29.4966C79.9094 29.3939 79.7139 29.2418 79.5597 29.0521C79.3062 28.5269 79.2412 27.9304 79.3755 27.3629C79.5423 25.9941 79.9015 24.6558 80.4424 23.3874C80.4474 23.3787 80.4501 23.3689 80.4501 23.3588C80.4501 23.3488 80.4474 23.339 80.4424 23.3303C80.2524 22.9177 80.1507 22.4699 80.1439 22.0157C80.257 20.6951 80.8041 19.4491 81.6998 18.4721C81.7633 18.3959 82.1634 17.9132 82.3349 17.9196C82.5063 17.9259 82.5508 18.1419 82.519 18.3197C82.3543 18.9214 82.0879 19.4905 81.7316 20.0026C81.4934 20.3988 81.3117 20.8263 81.1918 21.2727C81.1537 21.438 81.1261 21.6056 81.1092 21.7744C81.1092 21.9077 81.1473 22.0792 81.1473 22.0792C81.1473 22.0792 81.6681 21.3552 82.0047 20.9044C82.1888 20.663 82.3285 20.4979 82.4809 20.3201C82.6334 20.1423 83.243 19.5136 83.4208 19.3421C83.6869 19.0554 84.0006 18.8169 84.348 18.6372C84.4815 18.5482 84.6384 18.5007 84.7989 18.5007C84.9594 18.5007 85.1163 18.5482 85.2498 18.6372C85.477 18.827 85.6618 19.0624 85.792 19.3283C85.9222 19.5942 85.9949 19.8845 86.0055 20.1804C86.0688 20.8527 85.9458 21.5294 85.6499 22.1364C85.3161 22.7793 84.8161 23.3209 84.2019 23.7049C83.5693 24.1514 82.8169 24.3971 82.0428 24.4099H81.8205" fill="white"/>
</svg>
